<?xml version="1.0" encoding="utf-8"?>
<!-- Uploaded to: SVG Repo, www.svgrepo.com, Generator: SVG Repo Mixer Tools -->
<svg fill="#000000" height="800px" width="800px" version="1.1" id="_x31_" xmlns="http://www.w3.org/2000/svg" xmlns:xlink="http://www.w3.org/1999/xlink" 
	 viewBox="0 0 128 128" xml:space="preserve">
<g>
	<circle cx="24.3" cy="24.4" r="8.5"/>
	<path d="M54,36.7l-14.5,5.3l-14-6.5C24.7,35.2,23.9,35,23,35c-0.8,0-3.5,0-4.2,0c-3.5,0-6.3,2.9-6.4,6.4v26.4
		c0,1.8,0.7,3.4,1.9,4.6c0,0,2.3,43.1,2.3,43.3c0,2.9,2.3,5.2,5.2,5.2c2.7,0,5-2.1,5.2-4.8c0,0,0,0,0,0l0-0.3c0,0,0-0.1,0-0.1
		c0,0,0,0,0,0l1.4-44.2c0.7-1,1.1-2.3,1.1-3.5V45.5l8.4,3.9c0.9,0.5,2,0.5,2.9,0.2l16-5.8c2-0.8,2.9-2.8,2.3-4.8
		C58.1,37,56,36,54,36.7z"/>
	<path d="M54.2,6.3c-7.1,0-12.9,3-12.9,6.7c0,1.5,0.9,2.9,2.5,4L40,20.6l8.5-1.6c1.7,0.4,3.6,0.7,5.7,0.7c7.1,0,12.9-3,12.9-6.7
		C67,9.3,61.3,6.3,54.2,6.3z"/>
	<circle cx="103.4" cy="24.4" r="8.5"/>
	<path d="M108.8,35c-0.8,0-3.5,0-4.2,0c-1,0-2.3,0.4-3,1l-12.5,12l-14.5-5.3c-2-0.8-4.1,0.3-5,2.3c-0.7,2,0.3,4.1,2.3,4.8l16,5.8
		c0.9,0.3,2,0.3,2.9-0.2l7.4-5.7l0,18.2c0.1,1.3,0.5,2.6,1.1,3.5l1.4,44.2c0,0,0,0,0,0c0,0,0,0.1,0,0.1l0,0.3c0,0,0,0,0,0
		c0.2,2.7,2.4,4.8,5.2,4.8c2.9,0,5.2-2.3,5.2-5.2c0-0.1,2.3-43.3,2.3-43.3c1.2-1.2,1.9-2.8,1.9-4.6V41.4
		C115.1,37.9,112.3,35,108.8,35z"/>
</g>
</svg>