<?xml version="1.0" standalone="no"?>
<!DOCTYPE svg PUBLIC "-//W3C//DTD SVG 20010904//EN"
 "http://www.w3.org/TR/2001/REC-SVG-20010904/DTD/svg10.dtd">
<svg version="1.0" xmlns="http://www.w3.org/2000/svg"
 width="1653.000000pt" height="1653.000000pt" viewBox="0 0 1653.000000 1653.000000"
 preserveAspectRatio="xMidYMid meet">

<g transform="translate(0.000000,1653.000000) scale(0.100000,-0.100000)"
fill="#000000" stroke="none">
<path d="M4940 10148 c-122 -9 -195 -28 -295 -78 -173 -87 -303 -233 -372
-420 l-28 -75 -3 -1277 c-3 -1404 -5 -1352 58 -1486 63 -135 150 -233 283
-320 94 -61 205 -98 336 -111 97 -10 2821 -17 2821 -7 0 2 13 57 30 122 16 66
30 125 30 132 0 9 -293 12 -1431 12 -1597 0 -1514 -4 -1626 69 -123 80 -210
208 -233 346 -8 52 -11 381 -8 1250 l3 1180 23 62 c44 123 127 223 233 282
114 64 16 61 2004 61 l1810 0 29 123 c16 67 31 128 34 135 4 11 -306 13 -1799
10 -992 -1 -1847 -6 -1899 -10z"/>
<path d="M8822 10148 c-7 -7 -12 -18 -12 -26 0 -12 -39 -179 -130 -557 -11
-44 -40 -168 -65 -275 -73 -307 -134 -566 -160 -675 -13 -55 -45 -188 -70
-295 -25 -107 -57 -240 -70 -295 -46 -190 -136 -571 -171 -720 -19 -82 -48
-204 -64 -270 -16 -66 -52 -217 -80 -335 -28 -118 -56 -241 -64 -273 l-14 -57
1892 2 1891 3 95 33 c228 79 385 229 469 447 l35 90 7 545 c6 550 3 1810 -6
1995 -5 110 -18 162 -64 255 -113 226 -338 379 -606 410 -137 15 -2797 14
-2813 -2z m2869 -513 c76 -38 109 -88 109 -162 -1 -69 -28 -120 -103 -190
l-67 -62 93 -3 92 -3 3 -77 3 -78 -241 0 -240 0 0 58 0 57 130 125 c106 102
130 130 130 153 0 52 -75 62 -122 15 l-21 -21 -73 36 c-41 20 -74 41 -74 46 0
4 22 28 48 53 43 40 71 55 137 72 39 10 163 -2 196 -19z m-1256 -310 c174 -26
347 -91 475 -178 48 -33 190 -165 190 -178 0 -11 -292 -279 -304 -279 -6 0
-29 19 -51 41 -146 151 -381 225 -602 189 -231 -38 -404 -160 -497 -352 -170
-352 -43 -784 277 -942 97 -47 172 -66 292 -73 210 -12 383 51 532 195 l51 49
151 -139 c83 -77 151 -143 151 -147 0 -15 -146 -148 -208 -190 -89 -60 -220
-116 -348 -148 -102 -26 -122 -28 -314 -27 -197 0 -210 2 -324 32 -425 112
-716 414 -808 837 -20 95 -17 372 6 469 106 455 450 766 931 841 111 18 281
18 400 0z"/>
<path d="M5378 9332 l-178 -2 0 -1075 0 -1075 215 0 215 0 0 642 c0 391 4 638
9 633 5 -6 58 -91 118 -190 60 -99 136 -223 168 -275 32 -52 97 -160 145 -240
48 -80 113 -185 143 -235 l55 -90 108 0 108 0 62 105 c34 58 107 182 164 275
56 94 170 283 253 422 83 139 154 250 157 247 5 -6 10 -489 10 -1016 l0 -278
210 0 210 0 0 1075 0 1075 -186 -2 -186 -3 -152 -260 c-84 -143 -229 -388
-321 -545 -93 -157 -202 -342 -243 -412 -41 -71 -77 -128 -81 -128 -3 0 -28
37 -55 83 -27 45 -79 132 -116 192 -37 61 -196 326 -354 590 -158 264 -290
482 -294 485 -4 3 -87 4 -184 2z"/>
</g>
</svg>
