<?xml version="1.0" encoding="iso-8859-1"?>
<!-- Uploaded to: SVG Repo, www.svgrepo.com, Generator: SVG Repo Mixer Tools -->
<svg version="1.1" id="Layer_1" xmlns="http://www.w3.org/2000/svg" xmlns:xlink="http://www.w3.org/1999/xlink" 
	 viewBox="0 0 512 512" xml:space="preserve">
<path style="fill:#36A1CB;" d="M344.769,379.05H320.98h-20.111H277.08h-70.541c-4.377,21.357-23.279,37.423-45.932,37.423
	c-22.033,0-40.506-15.2-45.531-35.683c-13.588,4.51-23.394,17.312-23.394,32.412c0,18.863,15.293,34.153,34.155,34.153h23.789
	h20.111h23.789h1.497h23.788h3.519h16.593h7.197h16.593h3.519h10.85h12.94h10.849h20.111h23.789
	c18.863,0,34.156-15.29,34.156-34.153C378.925,394.341,363.632,379.05,344.769,379.05z"/>
<path style="fill:#2B80AF;" d="M124.692,427.702c-0.48-0.996-0.913-2.018-1.296-3.064c-0.383-1.047-0.716-2.116-0.998-3.208
	c-0.28-1.092-0.51-2.203-0.681-3.335c-0.174-1.131-0.29-2.279-0.348-3.443c-0.03-0.582-0.045-1.168-0.045-1.758
	c0-0.844,0.041-1.678,0.102-2.505c0.013-0.177,0.023-0.352,0.04-0.527c0.069-0.805,0.165-1.602,0.291-2.39
	c0.022-0.128,0.046-0.254,0.069-0.382c0.124-0.731,0.272-1.452,0.442-2.164c0.028-0.116,0.053-0.236,0.082-0.351
	c0.194-0.773,0.417-1.534,0.661-2.284c0.049-0.148,0.099-0.293,0.15-0.44c0.526-1.539,1.158-3.028,1.888-4.46
	c0.059-0.114,0.116-0.23,0.177-0.343c0.375-0.712,0.771-1.413,1.191-2.093c0.036-0.058,0.073-0.113,0.11-0.17
	c0.427-0.681,0.876-1.345,1.348-1.993c0.025-0.035,0.05-0.071,0.074-0.105c0.49-0.667,1.007-1.314,1.544-1.943
	c0.053-0.059,0.103-0.117,0.156-0.178c1.101-1.272,2.293-2.46,3.567-3.557c0.033-0.029,0.066-0.059,0.1-0.086
	c1.977-1.688,4.149-3.154,6.477-4.36c0.015-0.009,0.029-0.016,0.046-0.024c1.552-0.801,3.174-1.487,4.855-2.046
	c0.009-0.003,0.017-0.006,0.025-0.01v0.001c3.386-1.123,7-1.74,10.761-1.74h-21.558c-3.761,0-7.376,0.617-10.761,1.74v-0.001
	c-0.009,0.003-0.017,0.007-0.025,0.01c-1.68,0.559-3.302,1.245-4.855,2.046c-0.017,0.009-0.031,0.016-0.046,0.024
	c-2.328,1.206-4.5,2.672-6.477,4.36c-0.033,0.027-0.067,0.057-0.1,0.086c-1.274,1.097-2.466,2.285-3.567,3.557
	c-0.053,0.06-0.103,0.119-0.156,0.178c-0.537,0.63-1.053,1.276-1.544,1.943c-0.025,0.033-0.05,0.069-0.074,0.105
	c-0.472,0.648-0.921,1.312-1.348,1.993c-0.036,0.057-0.073,0.112-0.11,0.17c-0.421,0.681-0.817,1.381-1.191,2.093
	c-0.06,0.113-0.117,0.229-0.177,0.343c-0.731,1.431-1.362,2.921-1.888,4.46c-0.051,0.147-0.101,0.293-0.15,0.44
	c-0.245,0.75-0.468,1.511-0.661,2.284c-0.029,0.115-0.054,0.235-0.082,0.351c-0.17,0.712-0.318,1.434-0.442,2.164
	c-0.023,0.127-0.049,0.253-0.069,0.382c-0.125,0.787-0.221,1.584-0.291,2.39c-0.017,0.175-0.027,0.35-0.04,0.527
	c-0.061,0.828-0.102,1.661-0.102,2.505c0,0.59,0.015,1.176,0.045,1.758c0.059,1.164,0.175,2.313,0.348,3.443
	c0.171,1.132,0.401,2.243,0.681,3.335c0.282,1.092,0.614,2.161,0.998,3.208c0.383,1.047,0.816,2.068,1.296,3.064
	c5.517,11.447,17.228,19.346,30.787,19.346h0.001h21.557C141.92,447.048,130.209,439.149,124.692,427.702z"/>
<path style="fill:#36A1CB;" d="M193.524,266.245v-27.309v-45.618h-68.306v142.115c0,1.091,0.056,2.169,0.156,3.234
	c8.594-9.785,21.187-15.968,35.233-15.968c12.819,0,24.435,5.151,32.898,13.489c0.005-0.25,0.019-0.501,0.019-0.753v-41.983"/>
<path style="fill:#2B80AF;" d="M154.861,215.645c0-3.571,2.895-6.467,6.467-6.467h-21.558c-3.572,0-6.467,2.896-6.467,6.467v136.249
	c0,2.455,1.392,4.7,3.59,5.793c0.911,0.453,1.896,0.675,2.877,0.675c1.385,0,2.763-0.445,3.907-1.315
	c3.507-2.659,7.267-4.724,11.183-6.176V215.645z"/>
<rect x="126.619" y="193.318" style="fill:#8BD8F7;" width="66.904" height="50.876"/>
<path style="fill:#57BEDD;" d="M161.328,193.009h-21.558c-3.572,0-6.467,2.896-6.467,6.467v44.408h21.558v-44.408
	C154.861,195.906,157.755,193.009,161.328,193.009z"/>
<path style="fill:#7C7A75;" d="M250.611,98.392h34.972c6.847,0,12.396-5.549,12.396-12.396V38.423H27.545v47.572
	c0,6.847,5.549,12.396,12.396,12.396h183.722"/>
<polyline style="fill:#CCC3A8;" points="288.307,98.392 271.061,128.731 211.085,128.731 209.527,128.731 199.226,128.731 
	188.159,128.731 186.6,128.731 139.25,128.731 137.691,128.731 126.624,128.731 116.321,128.731 114.764,128.731 54.787,128.731 
	37.541,98.392 "/>
<path style="fill:#6B6861;" d="M57.188,85.689V73.135V38.116V25.562H35.631v12.555v35.017v12.554
	c0,6.847,5.549,12.396,12.396,12.396h21.558C62.737,98.084,57.188,92.535,57.188,85.689z"/>
<polygon style="fill:#C9B585;" points="45.626,98.084 62.872,128.424 84.43,128.424 67.184,98.084 "/>
<rect x="139.953" y="128.731" style="fill:#DFDBCC;" width="38.847" height="64.587"/>
<g>
	<circle style="fill:#FFB92E;" cx="345.085" cy="413.206" r="33.845"/>
	<path style="fill:#FFB92E;" d="M160.606,322.697c-25.896,0-46.888,20.994-46.888,46.888c0,25.896,20.993,46.888,46.888,46.888
		s46.888-20.992,46.888-46.888C207.494,343.69,186.501,322.697,160.606,322.697z M159.372,384.274
		c-8.112,0-14.688-6.577-14.688-14.688c0-8.111,6.576-14.688,14.688-14.688c8.111,0,14.688,6.577,14.688,14.688
		C174.059,377.697,167.483,384.274,159.372,384.274z"/>
</g>
<path style="fill:#7C7A75;" d="M76.51,128.731v15.331c0,8.376,6.792,15.168,15.169,15.168s15.169-6.792,15.169-15.168v-15.331H76.51
	z"/>
<g>
	<path style="fill:#CCC3A8;" d="M474.646,379.257c-10.933-15.103-28.567-24.12-47.169-24.12c-25.162,0-46.643,16.049-54.758,38.446
		c-6.178-8.785-16.389-14.532-27.95-14.532h-1.08c13.549-32.968,45.993-56.251,83.786-56.251c28.941,0,56.365,14.017,73.362,37.494
		c5.235,7.234,3.618,17.341-3.616,22.576C489.991,388.109,479.881,386.49,474.646,379.257z"/>
	<path style="fill:#CCC3A8;" d="M343.567,447.355h1.202c11.516,0,21.692-5.703,27.88-14.434
		c8.055,22.505,29.587,38.654,54.827,38.654c18.604,0,36.237-9.012,47.172-24.111c5.237-7.232,15.347-8.848,22.578-3.611
		c4.367,3.164,6.684,8.101,6.684,13.109c0,3.286-0.998,6.604-3.074,9.469c-16.998,23.469-44.422,37.479-73.361,37.479
		C389.565,503.913,357.041,480.486,343.567,447.355z"/>
</g>
<g>
	<path style="fill:#EF9A1D;" d="M340.878,412.895c0-14.921,9.661-27.579,23.067-32.081c-3.388-1.138-7.008-1.763-10.779-1.763
		c-18.693,0-33.846,15.154-33.846,33.843c0,18.693,15.153,33.846,33.846,33.846c3.77,0,7.391-0.625,10.779-1.763
		C350.539,440.475,340.878,427.816,340.878,412.895z"/>
	<path style="fill:#EF9A1D;" d="M143.361,369.278c0-22.183,15.412-40.758,36.109-45.629c-3.462-0.815-7.069-1.259-10.779-1.259
		c-25.895,0-46.888,20.994-46.888,46.888c0,25.896,20.993,46.888,46.888,46.888c3.71,0,7.317-0.444,10.779-1.259
		C158.773,410.035,143.361,391.463,143.361,369.278z"/>
</g>
<path style="fill:#CCC3A8;" d="M317.957,24.914v-3.32c0-7.461-6.048-13.509-13.509-13.509h-74.732h-6.467H102.793h-6.467H21.593
	c-7.461,0-13.509,6.048-13.509,13.509v3.32c0,7.461,6.048,13.509,13.509,13.509h74.732h6.467h123.033h6.467h20.838h3.532h2.935
	h3.532h41.318C311.909,38.423,317.957,32.375,317.957,24.914z"/>
<path style="fill:#C9B585;" d="M37.727,24.607v-3.32c0-7.461,6.048-13.509,13.509-13.509H29.679
	c-7.461,0-13.509,6.048-13.509,13.509v3.32c0,7.461,6.048,13.509,13.509,13.509h21.558C43.775,38.116,37.727,32.068,37.727,24.607z"
	/>
<g>
	<path style="fill:#231F20;" d="M501.968,437.307c-4.165-3.017-9.08-4.611-14.213-4.611c-7.76,0-15.108,3.749-19.655,10.029
		c-9.417,13.004-24.604,20.769-40.623,20.769c-19.844,0-37.796-11.821-45.802-29.777c3.392-6.078,5.334-13.072,5.334-20.513
		c0-7.388-1.912-14.335-5.259-20.383c8.045-17.849,25.967-29.598,45.726-29.598c16.017,0,31.203,7.767,40.621,20.775
		c4.547,6.282,11.896,10.033,19.657,10.033c5.132,0,10.045-1.594,14.207-4.608c5.249-3.797,8.704-9.413,9.728-15.81
		c1.024-6.396-0.503-12.809-4.302-18.057c-18.514-25.572-48.387-40.838-79.911-40.838c-38.31,0-72.669,21.907-89.024,56.251H215.544
		c0.012-0.46,0.035-0.918,0.035-1.381c0-14.029-5.29-26.842-13.97-36.565v-39.571c0-4.466-3.618-8.084-8.084-8.084
		s-8.084,3.618-8.084,8.084v27.071c-3.387-1.719-6.949-3.056-10.624-4.035c-0.223-0.059-0.445-0.124-0.669-0.181
		c-0.607-0.154-1.219-0.291-1.832-0.424c-0.387-0.084-0.774-0.166-1.163-0.243c-0.535-0.103-1.069-0.2-1.608-0.288
		c-0.496-0.081-0.994-0.152-1.494-0.22c-0.468-0.064-0.935-0.128-1.404-0.179c-0.623-0.068-1.25-0.118-1.879-0.165
		c-0.369-0.027-0.736-0.065-1.106-0.084c-1.011-0.056-2.027-0.089-3.053-0.089c-1.116,0-2.22,0.044-3.32,0.11
		c-0.286,0.017-0.57,0.043-0.855,0.066c-0.868,0.066-1.729,0.151-2.585,0.255c-0.251,0.031-0.503,0.061-0.753,0.096
		c-2.273,0.313-4.503,0.759-6.681,1.341c-0.001,0-0.002,0-0.003,0.001c-1.084,0.29-2.151,0.618-3.209,0.972
		c-0.13,0.043-0.26,0.087-0.389,0.132c-1.027,0.352-2.043,0.73-3.042,1.141c-0.04,0.016-0.082,0.031-0.122,0.049
		c-1.064,0.44-2.112,0.911-3.141,1.415c-0.099,0.048-0.195,0.101-0.293,0.15c-0.846,0.42-1.678,0.863-2.499,1.326
		c-0.136,0.077-0.278,0.142-0.413,0.22V252.28h52.137v13.968c0,4.466,3.618,8.084,8.084,8.084s8.084-3.618,8.084-8.084v-22.052
		v-50.878c0-4.466-3.618-8.084-8.084-8.084h-6.646v-48.419h84.184c2.907,0,5.592-1.561,7.029-4.089l15.982-28.114
		c7.063-3.234,11.991-10.352,11.991-18.615V46.427c11.152-0.831,19.979-10.15,19.979-21.511v-3.32
		c0-11.906-9.687-21.593-21.593-21.593H21.593C9.687,0.001,0,9.688,0,21.594v3.32C0,36.101,8.552,45.325,19.461,46.4v39.596
		c0,8.439,5.133,15.698,12.439,18.831l15.859,27.899c1.437,2.529,4.121,4.089,7.029,4.089h13.64v7.247
		c0,8.381,4.473,15.719,11.142,19.812c-7.129,12.961-19.664,38.95-27.134,72.991c-9.774,44.541-12.185,111.549,31.243,178.852
		c1.306,22.124,19.711,39.723,42.157,39.723h212.475c16.291,34.53,50.706,56.558,89.167,56.558
		c31.523,0,61.395-15.261,79.907-40.821c3.017-4.164,4.611-9.079,4.611-14.213C511.995,449.205,508.247,441.858,501.968,437.307z
		 M345.081,387.442c13.76,0,25.034,10.845,25.726,24.435c0.023,0.439,0.033,0.881,0.033,1.325c0,0.444-0.012,0.886-0.033,1.325
		c-0.692,13.592-11.967,24.437-25.726,24.437c-14.205,0-25.761-11.557-25.761-25.761
		C319.319,398.998,330.876,387.442,345.081,387.442z M427.477,330.885c26.354,0,51.332,12.768,66.814,34.151
		c1.266,1.749,1.775,3.887,1.435,6.019c-0.342,2.132-1.493,4.003-3.245,5.271c-1.388,1.006-3.022,1.537-4.725,1.537
		c-2.631,0-5.022-1.219-6.561-3.346c-12.45-17.197-32.531-27.463-53.717-27.463c-23.637,0-45.286,12.706-57.075,32.594
		c-0.083-0.064-0.17-0.122-0.254-0.184c-0.205-0.154-0.415-0.302-0.622-0.452c-0.322-0.233-0.643-0.468-0.971-0.692
		c-0.319-0.218-0.646-0.426-0.97-0.635c-0.223-0.143-0.444-0.291-0.669-0.43c-0.44-0.272-0.888-0.531-1.339-0.788
		c-0.119-0.068-0.235-0.138-0.355-0.204c-0.549-0.305-1.106-0.596-1.669-0.876c-0.026-0.013-0.052-0.027-0.078-0.04
		c-2.41-1.195-4.95-2.165-7.592-2.887C370.455,346.898,397.529,330.885,427.477,330.885z M186.366,398.572
		c-0.012,0.011-0.025,0.022-0.038,0.032c-4.863,4.302-10.79,7.389-17.261,8.845c-0.034,0.008-0.069,0.016-0.105,0.024
		c-0.447,0.099-0.899,0.186-1.351,0.271c-0.161,0.03-0.322,0.059-0.484,0.087c-0.382,0.066-0.765,0.124-1.15,0.179
		c-0.25,0.035-0.502,0.067-0.755,0.096c-0.324,0.039-0.649,0.077-0.975,0.108c-0.348,0.032-0.697,0.056-1.048,0.08
		c-0.249,0.016-0.497,0.038-0.747,0.05c-0.613,0.029-1.229,0.046-1.849,0.046c-0.623,0-1.242-0.018-1.857-0.047
		c-0.181-0.009-0.361-0.024-0.542-0.034c-0.445-0.027-0.888-0.059-1.329-0.101c-0.186-0.017-0.371-0.039-0.556-0.059
		c-0.458-0.051-0.914-0.108-1.367-0.175c-0.141-0.021-0.283-0.041-0.425-0.064c-0.568-0.089-1.132-0.189-1.691-0.303
		c-0.018-0.003-0.037-0.008-0.055-0.011c-13.211-2.715-23.992-12.166-28.586-24.592c-0.028-0.078-0.056-0.154-0.084-0.232
		c-0.16-0.441-0.308-0.887-0.453-1.337c-0.065-0.202-0.129-0.402-0.19-0.606c-0.098-0.322-0.188-0.648-0.277-0.973
		c-0.078-0.285-0.157-0.568-0.23-0.856c-0.755-3.017-1.162-6.17-1.162-9.418c0-9.952,3.769-19.039,9.951-25.915
		c0.161-0.179,0.326-0.352,0.489-0.528c0.286-0.305,0.57-0.611,0.866-0.908c0.142-0.143,0.29-0.28,0.433-0.42
		c0.322-0.314,0.643-0.628,0.977-0.931c0.066-0.059,0.134-0.114,0.199-0.174c0.667-0.599,1.359-1.171,2.067-1.724
		c0.22-0.171,0.437-0.349,0.661-0.516c0.224-0.168,0.457-0.326,0.686-0.488c0.319-0.226,0.636-0.456,0.961-0.673
		c0.192-0.128,0.389-0.249,0.584-0.375c0.376-0.241,0.753-0.481,1.137-0.708c0.163-0.097,0.329-0.19,0.493-0.284
		c0.429-0.246,0.86-0.487,1.298-0.717c0.134-0.07,0.268-0.138,0.402-0.206c0.48-0.245,0.964-0.481,1.453-0.705
		c0.103-0.047,0.208-0.095,0.313-0.141c0.528-0.236,1.061-0.461,1.599-0.675c0.075-0.03,0.151-0.06,0.227-0.089
		c0.57-0.221,1.146-0.429,1.726-0.623c0.054-0.018,0.107-0.037,0.161-0.055c0.601-0.198,1.208-0.382,1.819-0.55
		c0.04-0.011,0.08-0.024,0.121-0.035c0.619-0.169,1.243-0.321,1.871-0.459c0.039-0.009,0.078-0.018,0.116-0.027
		c0.619-0.134,1.243-0.251,1.869-0.355c0.052-0.009,0.103-0.019,0.156-0.028c0.6-0.097,1.205-0.176,1.811-0.245
		c0.08-0.01,0.16-0.023,0.239-0.03c0.58-0.063,1.164-0.106,1.748-0.141c0.105-0.007,0.208-0.018,0.313-0.024
		c0.683-0.037,1.37-0.056,2.058-0.056c0.659,0,1.313,0.017,1.964,0.05c0.148,0.008,0.294,0.023,0.443,0.032
		c0.507,0.031,1.013,0.065,1.514,0.115c0.125,0.013,0.249,0.032,0.374,0.045c0.528,0.058,1.054,0.122,1.576,0.201
		c0.071,0.011,0.141,0.025,0.212,0.037c0.579,0.092,1.156,0.192,1.726,0.309c0.004,0.001,0.009,0.002,0.013,0.002
		c17.661,3.628,30.983,19.293,30.983,38.012c0,9.309-3.297,17.861-8.782,24.554c-0.101,0.123-0.205,0.244-0.307,0.365
		c-0.259,0.308-0.522,0.611-0.79,0.911c-0.17,0.191-0.343,0.378-0.517,0.565c-0.198,0.213-0.4,0.424-0.603,0.632
		c-0.234,0.239-0.468,0.477-0.707,0.71c-0.132,0.128-0.266,0.254-0.4,0.38C186.995,397.997,186.684,398.29,186.366,398.572z
		 M134.708,236.109v-34.707h5.24h38.846h6.646v34.707L134.708,236.109L134.708,236.109z M170.709,185.234h-22.678v-48.419h22.678
		V185.234z M16.168,24.914v-3.32c0-2.991,2.434-5.425,5.425-5.425h282.854c2.991,0,5.425,2.434,5.425,5.425v3.32
		c0,2.991-2.434,5.425-5.425,5.425h-6.469H27.545h-5.951C18.602,30.339,16.168,27.907,16.168,24.914z M51.436,106.476h172.228
		c4.466,0,8.084-3.618,8.084-8.084c0-4.466-3.618-8.084-8.084-8.084H39.941c-2.378,0-4.312-1.934-4.312-4.312V46.508h254.266v39.488
		c0,2.378-1.934,4.312-4.312,4.312h-34.972c-4.466,0-8.084,3.618-8.084,8.084c0,4.466,3.618,8.084,8.084,8.084h23.802l-8.055,14.17
		h-87.564h-38.846H106.85H76.51H59.49L51.436,106.476z M98.766,136.815v7.247c0,3.906-3.179,7.084-7.085,7.084
		s-7.085-3.178-7.085-7.084v-7.247H98.766z M68.104,240.898c8.13-37.463,23.137-65.128,28.424-74.101
		c10.502-2.237,18.407-11.578,18.407-22.736v-7.247h16.929v48.419h-5.24h-1.406c-4.466,0-8.084,3.618-8.084,8.084v142.115
		c0,0.18,0.011,0.368,0.013,0.549c-7.208,9.3-11.513,20.955-11.513,33.604c0,2.14,0.136,4.247,0.375,6.323
		c-7.34,3.892-13.269,9.808-17.18,16.912C63.268,346.385,56.281,295.371,68.104,240.898z M99.765,413.202
		c0-8.497,4.091-16.246,10.693-21.058c7.216,16.123,21.763,27.748,39.032,31.282c0.037,0.008,0.073,0.015,0.111,0.023
		c1.725,0.349,3.475,0.621,5.248,0.805c0.158,0.016,0.318,0.029,0.477,0.044c0.683,0.065,1.37,0.117,2.06,0.157
		c0.226,0.013,0.453,0.027,0.68,0.038c0.843,0.039,1.689,0.065,2.541,0.065c0.85,0,1.697-0.025,2.539-0.065
		c0.312-0.014,0.62-0.038,0.929-0.056c0.514-0.032,1.027-0.07,1.538-0.117c0.393-0.036,0.785-0.075,1.176-0.119
		c0.388-0.044,0.773-0.096,1.159-0.148c12.695-1.703,24.025-7.751,32.45-16.601c0.144-0.151,0.29-0.301,0.432-0.454
		c0.326-0.349,0.645-0.704,0.96-1.062c0.247-0.278,0.488-0.559,0.73-0.842c0.247-0.291,0.494-0.58,0.734-0.876
		c0.378-0.463,0.747-0.937,1.111-1.413c0.107-0.14,0.218-0.276,0.323-0.417c0.504-0.674,0.992-1.361,1.465-2.059
		c0.03-0.044,0.058-0.089,0.087-0.134c0.445-0.66,0.875-1.332,1.291-2.013c0.056-0.091,0.111-0.183,0.166-0.275
		c0.406-0.673,0.8-1.355,1.178-2.047c0.028-0.053,0.058-0.105,0.086-0.156c1.246-2.294,2.333-4.69,3.248-7.176
		c0.02-0.057,0.041-0.114,0.061-0.171c0.149-0.407,0.301-0.812,0.44-1.223h99.562c-5.704,7.163-9.124,16.22-9.124,26.068
		c0,9.848,3.421,18.906,9.125,26.07H125.835C111.459,439.271,99.765,427.577,99.765,413.202z M494.289,461.691
		c-15.482,21.376-40.458,34.138-66.813,34.138c-30.081,0-57.214-16.117-71.745-41.84c3.983-1.071,7.734-2.708,11.162-4.825
		c0.054-0.033,0.107-0.069,0.161-0.103c0.5-0.313,0.997-0.631,1.483-0.964c0.234-0.158,0.46-0.328,0.691-0.492
		c0.302-0.216,0.607-0.427,0.902-0.65c0.049-0.036,0.098-0.069,0.146-0.106c11.755,20.017,33.454,32.809,57.2,32.809
		c21.188,0,41.27-10.263,53.719-27.454c1.539-2.125,3.93-3.344,6.561-3.344c1.704,0,3.339,0.531,4.727,1.537
		c2.126,1.54,3.345,3.931,3.345,6.563C495.826,458.668,495.295,460.302,494.289,461.691z"/>
	<path style="fill:#231F20;" d="M159.371,346.813c-12.556,0-22.772,10.216-22.772,22.772s10.216,22.773,22.772,22.773
		s22.772-10.216,22.772-22.773S171.928,346.813,159.371,346.813z M165.841,370.915c-0.617,3.006-3.284,5.275-6.469,5.275
		c-3.641,0-6.604-2.963-6.604-6.604s2.963-6.604,6.604-6.604c3.186,0,5.853,2.268,6.469,5.275c0.088,0.429,0.135,0.874,0.135,1.329
		C165.975,370.04,165.929,370.486,165.841,370.915z"/>
	<circle style="fill:#231F20;" cx="345.085" cy="413.206" r="10.056"/>
</g>
</svg>